<svg width="66" height="66" viewBox="0 0 66 66" fill="none" xmlns="http://www.w3.org/2000/svg">
<path d="M33 61.875C17.0528 61.875 4.125 48.9472 4.125 33C4.125 17.0528 17.0528 4.125 33 4.125C48.9472 4.125 61.875 17.0528 61.875 33C61.875 48.9472 48.9472 61.875 33 61.875ZM33 66C51.2254 66 66 51.2254 66 33C66 14.7746 51.2254 0 33 0C14.7746 0 0 14.7746 0 33C0 51.2254 14.7746 66 33 66Z" fill="#118AB2"/>
<path d="M33 53.625C21.6091 53.625 12.375 44.3909 12.375 33C12.375 21.6091 21.6091 12.375 33 12.375C44.3909 12.375 53.625 21.6091 53.625 33C53.625 44.3909 44.3909 53.625 33 53.625ZM33 57.75C46.669 57.75 57.75 46.669 57.75 33C57.75 19.331 46.669 8.25 33 8.25C19.331 8.25 8.25 19.331 8.25 33C8.25 46.669 19.331 57.75 33 57.75Z" fill="#118AB2"/>
<path d="M33 45.375C26.1655 45.375 20.625 39.8345 20.625 33C20.625 26.1655 26.1655 20.625 33 20.625C39.8345 20.625 45.375 26.1655 45.375 33C45.375 39.8345 39.8345 45.375 33 45.375ZM33 49.5C42.1127 49.5 49.5 42.1127 49.5 33C49.5 23.8873 42.1127 16.5 33 16.5C23.8873 16.5 16.5 23.8873 16.5 33C16.5 42.1127 23.8873 49.5 33 49.5Z" fill="#118AB2"/>
<path d="M39.1876 33C39.1876 36.4173 36.4173 39.1875 33.0001 39.1875C29.5828 39.1875 26.8126 36.4173 26.8126 33C26.8126 29.5827 29.5828 26.8125 33.0001 26.8125C36.4173 26.8125 39.1876 29.5827 39.1876 33Z" fill="#118AB2"/>
</svg>
